<svg height="500" viewBox="0 0 132.29167 132.29167" width="500" xmlns="http://www.w3.org/2000/svg"><g transform="translate(0 -164.70834)"><path d="m-.000007 164.70834h132.29167v132.29167h-132.29167z" fill="#1a1a1a" stroke="#000" stroke-width=".264583"/><path d="m46.055426 181.21193-12.751548 23.43744-11.496075-20.85628h-17.839053l29.482939 53.2899 2.663385-4.90551v46.32703h15.624646v-7.22244h.147801c2.138655 1.98992 4.349368 3.61213 6.85478 5.01266 2.433353 1.32661 5.012673 2.35852 7.665896 2.947.958006.29574 1.989919.59124 2.947.73722 1.032838.14771 2.065674.29575 3.097583.29575.517344.0719.958931.1477 1.47535.1477.515494 0 1.031909.074 1.547403.074l7.412771-12.33583c.716888.92381 1.499366 1.81994 2.359449 2.67909 5.086576 5.08658 11.277129 7.66497 18.426597 7.66497h19.01601v-26.90176h-15.62557v11.27529h-3.39044c-2.87494 0-5.307359-1.03193-7.372112-3.09481-2.0629-2.06478-3.094813-4.49719-3.094813-7.37213 0-2.87308 1.031913-5.38035 3.094813-7.37027 2.064753-1.98991 4.497172-3.02092 7.372112-3.02092 3.83388 0 7.22246 1.98991 9.06457 5.23255l13.56359-7.8128c-2.09891-3.72484-5.01635-6.69402-8.61927-8.98233.92198-.72245 1.81716-1.50583 2.67908-2.36962 5.30737-5.30645 7.9606-11.64571 7.9606-19.0899 0-7.4442-2.65323-13.78346-7.9606-19.01602-5.23346-5.30553-11.57274-7.95966-19.01692-7.95966-5.445949 0-10.297877 1.42731-14.589964 4.26806l1.385734-2.49801h-17.837206l-11.570901 20.8572-12.678569-23.43743zm55.290904 16.50874c3.09481 0 5.74896 1.10584 7.95967 3.31653 2.28555 2.21163 3.39044 4.8658 3.39044 7.96151 0 3.16873-1.10489 5.8238-3.39044 8.03453-2.21071 2.21163-4.86486 3.31652-7.96059 3.31652-3.168722 0-5.821945-1.10489-8.032657-3.31652-2.210712-2.21073-3.316533-4.86486-3.316533-8.03453 0-3.0948 1.105821-5.74988 3.316533-7.96057 2.211634-2.21072 4.864856-3.31656 8.033577-3.31656zm-26.969211 10.88729c-.0019.13129-.0091.25873-.0091.3917 0 7.44415 2.654149 13.78345 7.88669 19.08989 1.595444 1.5733 3.285122 2.90821 5.069027 4.01311-.711347.58478-1.404215 1.2102-2.078606 1.8846-1.930795 1.93081-3.501296 4.02233-4.705039 6.26539-1.036529-2.1322-2.455525-4.09718-4.256982-5.89863-3.646338-3.58167-7.883921-5.65658-12.753402-6.1924l10.845704-19.55366zm-28.322615 5.25655 7.614161 14.10682-15.224628-.087 7.609541-14.01998zm5.685216 29.85062h9.216076c1.621311 0 3.094811.59123 4.199706 1.69616 1.179724 1.17972 1.7682 2.5793 1.7682 4.27452 0 1.6204-.588476 3.0209-1.7682 4.1997-1.104895 1.17972-2.577473 1.77005-4.199706 1.77005h-9.216076v-11.94134zm27.372923 17.65707c.367683 1.0125.805575 1.99546 1.306289 2.95346-1.390357.27898-2.813047.46931-4.05836.46931 1.028215-1.06889 1.946496-2.20332 2.751149-3.42187z" fill="#fff" stroke-width=".923825"/></g></svg>