<?xml version="1.0" encoding="UTF-8" standalone="no"?>
<!-- Created with Inkscape (http://www.inkscape.org/) -->

<svg
   xmlns:dc="http://purl.org/dc/elements/1.1/"
   xmlns:cc="http://creativecommons.org/ns#"
   xmlns:rdf="http://www.w3.org/1999/02/22-rdf-syntax-ns#"
   xmlns:svg="http://www.w3.org/2000/svg"
   xmlns="http://www.w3.org/2000/svg"
   xmlns:sodipodi="http://sodipodi.sourceforge.net/DTD/sodipodi-0.dtd"
   xmlns:inkscape="http://www.inkscape.org/namespaces/inkscape"
   width="500"
   height="500"
   viewBox="0 0 132.29167 132.29167"
   version="1.1"
   id="svg832"
   inkscape:version="0.92.3 (2405546, 2018-03-11)"
   sodipodi:docname="favicon.svg">
  <defs
     id="defs826" />
  <sodipodi:namedview
     id="base"
     pagecolor="#ffffff"
     bordercolor="#666666"
     borderopacity="1.0"
     inkscape:pageopacity="0.0"
     inkscape:pageshadow="2"
     inkscape:zoom="0.49497475"
     inkscape:cx="266.82471"
     inkscape:cy="382.04229"
     inkscape:document-units="mm"
     inkscape:current-layer="layer1"
     showgrid="false"
     units="px"
     inkscape:snap-bbox="true"
     inkscape:snap-page="true"
     inkscape:snap-bbox-midpoints="true"
     inkscape:snap-object-midpoints="true"
     inkscape:window-width="1920"
     inkscape:window-height="1046"
     inkscape:window-x="0"
     inkscape:window-y="34"
     inkscape:window-maximized="1" />
  <metadata
     id="metadata829">
    <rdf:RDF>
      <cc:Work
         rdf:about="">
        <dc:format>image/svg+xml</dc:format>
        <dc:type
           rdf:resource="http://purl.org/dc/dcmitype/StillImage" />
        <dc:title></dc:title>
      </cc:Work>
    </rdf:RDF>
  </metadata>
  <g
     inkscape:label="Layer 1"
     inkscape:groupmode="layer"
     id="layer1"
     transform="translate(0,-164.70834)">
    <rect
       style="fill:#1a1a1a;stroke:#000000;stroke-width:0.26458332;stroke-opacity:1;fill-opacity:1"
       id="rect1383"
       width="132.29167"
       height="132.29167"
       x="-6.5763793e-06"
       y="164.70834" />
    <path
       inkscape:connector-curvature="0"
       d="M 46.055426,181.21193 33.303878,204.64937 21.807803,183.79309 H 3.96875 l 29.482939,53.2899 2.663385,-4.90551 v 46.32703 H 51.73972 v -7.22244 h 0.147801 c 2.138655,1.98992 4.349368,3.61213 6.85478,5.01266 2.433353,1.32661 5.012673,2.35852 7.665896,2.947 0.958006,0.29574 1.989919,0.59124 2.947,0.73722 1.032838,0.14771 2.065674,0.29575 3.097583,0.29575 0.517344,0.0719 0.958931,0.1477 1.47535,0.1477 0.515494,0 1.031909,0.074 1.547403,0.074 l 7.412771,-12.33583 c 0.716888,0.92381 1.499366,1.81994 2.359449,2.67909 5.086576,5.08658 11.277129,7.66497 18.426597,7.66497 h 19.01601 v -26.90176 h -15.62557 v 11.27529 h -3.39044 c -2.87494,0 -5.307359,-1.03193 -7.372112,-3.09481 -2.0629,-2.06478 -3.094813,-4.49719 -3.094813,-7.37213 0,-2.87308 1.031913,-5.38035 3.094813,-7.37027 2.064753,-1.98991 4.497172,-3.02092 7.372112,-3.02092 3.83388,0 7.22246,1.98991 9.06457,5.23255 l 13.56359,-7.8128 c -2.09891,-3.72484 -5.01635,-6.69402 -8.61927,-8.98233 0.92198,-0.72245 1.81716,-1.50583 2.67908,-2.36962 5.30737,-5.30645 7.9606,-11.64571 7.9606,-19.0899 0,-7.4442 -2.65323,-13.78346 -7.9606,-19.01602 -5.23346,-5.30553 -11.57274,-7.95966 -19.01692,-7.95966 -5.445949,0 -10.297877,1.42731 -14.589964,4.26806 L 88.14117,183.7923 H 70.303964 L 58.733063,204.6495 46.054494,181.21207 Z m 55.290904,16.50874 c 3.09481,0 5.74896,1.10584 7.95967,3.31653 2.28555,2.21163 3.39044,4.8658 3.39044,7.96151 0,3.16873 -1.10489,5.8238 -3.39044,8.03453 -2.21071,2.21163 -4.86486,3.31652 -7.96059,3.31652 -3.168722,0 -5.821945,-1.10489 -8.032657,-3.31652 -2.210712,-2.21073 -3.316533,-4.86486 -3.316533,-8.03453 0,-3.0948 1.105821,-5.74988 3.316533,-7.96057 2.211634,-2.21072 4.864856,-3.31656 8.033577,-3.31656 z m -26.969211,10.88729 c -0.0019,0.13129 -0.0091,0.25873 -0.0091,0.3917 0,7.44415 2.654149,13.78345 7.88669,19.08989 1.595444,1.5733 3.285122,2.90821 5.069027,4.01311 -0.711347,0.58478 -1.404215,1.2102 -2.078606,1.8846 -1.930795,1.93081 -3.501296,4.02233 -4.705039,6.26539 -1.036529,-2.1322 -2.455525,-4.09718 -4.256982,-5.89863 -3.646338,-3.58167 -7.883921,-5.65658 -12.753402,-6.1924 l 10.845704,-19.55366 z m -28.322615,5.25655 7.614161,14.10682 -15.224628,-0.087 7.609541,-14.01998 z m 5.685216,29.85062 h 9.216076 c 1.621311,0 3.094811,0.59123 4.199706,1.69616 1.179724,1.17972 1.7682,2.5793 1.7682,4.27452 0,1.6204 -0.588476,3.0209 -1.7682,4.1997 -1.104895,1.17972 -2.577473,1.77005 -4.199706,1.77005 H 51.73972 v -11.94134 z m 27.372923,17.65707 c 0.367683,1.0125 0.805575,1.99546 1.306289,2.95346 -1.390357,0.27898 -2.813047,0.46931 -4.05836,0.46931 1.028215,-1.06889 1.946496,-2.20332 2.751149,-3.42187 z"
       style="font-size:79.78399658px;line-height:60.00000238%;font-family:KiloGram;-inkscape-font-specification:KiloGram;text-align:start;letter-spacing:-7.78499985;word-spacing:0;fill:#ffffff;stroke-width:0.92382467"
       font-size="79.784"
       letter-spacing="-7.785"
       word-spacing="0"
       id="path2" />
  </g>
</svg>
