<svg height="107.469" viewBox="0 0 134.60739 107.46864" width="134.607" xmlns="http://www.w3.org/2000/svg"><path d="m45.557 0-13.803 25.37-12.444-22.576h-19.31l31.914 57.684 2.883-5.31v50.147h16.913v-7.818h.16c2.315 2.154 4.708 3.91 7.42 5.426 2.634 1.436 5.426 2.553 8.298 3.19 1.037.32 2.154.64 3.19.798 1.118.16 2.236.32 3.353.32.56.078 1.038.16 1.597.16.558 0 1.117.08 1.675.08l8.024-13.353c.776 1 1.623 1.97 2.554 2.9 5.506 5.506 12.207 8.297 19.946 8.297h20.584v-29.12h-16.914v12.205h-3.67c-3.112 0-5.745-1.117-7.98-3.35-2.233-2.235-3.35-4.868-3.35-7.98 0-3.11 1.117-5.824 3.35-7.978 2.235-2.154 4.868-3.27 7.98-3.27 4.15 0 7.818 2.154 9.812 5.664l14.682-8.457c-2.272-4.032-5.43-7.246-9.33-9.723.998-.782 1.967-1.63 2.9-2.565 5.745-5.744 8.617-12.606 8.617-20.664s-2.872-14.92-8.617-20.584c-5.665-5.743-12.527-8.616-20.585-8.616-5.895 0-11.147 1.545-15.793 4.62l1.5-2.704h-19.308l-12.525 22.577-13.724-25.37zm59.85 17.87c3.35 0 6.223 1.197 8.616 3.59 2.474 2.394 3.67 5.267 3.67 8.618 0 3.43-1.196 6.304-3.67 8.697-2.393 2.394-5.266 3.59-8.617 3.59-3.43 0-6.302-1.196-8.695-3.59-2.393-2.393-3.59-5.266-3.59-8.697 0-3.35 1.197-6.224 3.59-8.617 2.394-2.393 5.266-3.59 8.696-3.59zm-29.193 11.785c-.002.142-.01.28-.01.424 0 8.058 2.873 14.92 8.537 20.664 1.727 1.703 3.556 3.148 5.487 4.344-.77.633-1.52 1.31-2.25 2.04-2.09 2.09-3.79 4.354-5.093 6.782-1.122-2.308-2.658-4.435-4.608-6.385-3.947-3.877-8.534-6.123-13.805-6.703l11.74-21.166zm-30.658 5.69 8.242 15.27-16.48-.094 8.237-15.176zm6.154 32.312h9.976c1.755 0 3.35.64 4.546 1.836 1.277 1.277 1.914 2.792 1.914 4.627 0 1.754-.637 3.27-1.914 4.546-1.196 1.277-2.79 1.916-4.546 1.916h-9.976v-12.926zm29.63 19.113c.398 1.096.872 2.16 1.414 3.197-1.505.302-3.045.508-4.393.508 1.113-1.157 2.107-2.385 2.978-3.704z" fill="#fff"/></svg>